<svg width="725" height="480" fill="none" xmlns="http://www.w3.org/2000/svg"><circle cx="372.348" cy="117.973" r="267.973" fill="#fff"/><path d="M20.452 145.746c-.574-2.373 1.285-2.332 1.959.113 1.62 5.991 4.74 8.291 8.5 8.632 4.749.44 15.704 1.605 22.94 2.157 10.369.823 17.219 1.175 21.395 1.358 3.718.083 6.82-1.406 6.346-4.237-.804-4.805-6.557-10.192-12.509-14.664-3.119-2.3-2.834-3.759.056-2.302 10.156 4.826 16.422 8.011 16.738 9.898.23 1.373-3.546.418-2.957 3.935 1.163 6.949 3.289 20.176 4.437 25.981.703 3.675 4.064 3.2 4.293 4.573.259 1.544-5.09 1.734-14.47 3.128-2.674.359-3.404-.842-.43-2.045 6.176-2.621 8.519-6.541 7.872-10.402-.804-4.804-3.594-6.719-8.37-7.33-3.433-.484-10.598-1.137-21.41-1.973-9.21-.751-20.436-1.43-22.753-1.571-4.705-.183-6.348 1.592-6.073 6.396.187 2.703-1.543 2.375-1.96-.113-.588-3.517-.476-6.535-1.194-10.824-.575-3.432-1.593-7.407-2.41-10.71Zm12.059 61.393c-1.493-4.728 6.413-3.667 7.985 1.31 2.593 8.212 12.206 10.923 29.294 5.527 4.811-1.519 6.575-3.445 5.789-5.933-2.253-7.134-30.6-15.15-42.81-15.398-7.645-.232-7.12-5.506-.89-6.287 28.499-3.344 63.11 1.69 72.068 30.059.734 2.322-.362 3.763-2.645 3.754-2.367.018-4.274-1.113-5.191-4.016-9.954-31.521-30.56-26.291-44.993-25.2-1.68.166-1.559 1.131-.328 1.563 14.656 5.68 30.024 11.591 31.883 17.481 1.362 4.313-.397 7.697-5.208 9.216-16.341 5.16-42.047-2.869-44.954-12.076Zm10.742 31.146c-1.505-3.137-.667-6.819 3.097-8.625 11.53-5.532 40.847 5.1 48.797 16.24 1.98 2.717 3.294 3.244 5.953 4.766 3.316 1.882 3.039 4.524 1.314 5.351-1.177.565-4.953.737-37.213 3.48-2.493.231-4.344 1.602-3.517 3.327 1.092 2.275 6.358 3.8 10.778 4.767.969.21 1.141 1.575-.258 1.474-5.012-.393-15.931-3.644-18.189-8.35-1.43-2.98.65-6.487 9.29-6.579 1.166.019 3.851-.016 5.097-.034 2.101-.044 2.516-1.593.191-2.215-2.71-.822-7.895-2.579-11.837-4.161-8.002-3.204-12.035-6.382-13.503-9.441Zm7.18 1.09c4.704 9.803 35.278 15.009 40.924 12.299 1.49-.715 2.266-2.92 1.212-5.116-6.02-12.548-32.668-15.199-40.118-11.625-1.96.941-2.808 2.795-2.018 4.442Zm30.808 66.199c-2.688-1.648-3.26-4.516 4.282-5.937 27.013-5.233 30.941-6.101 32.382-7.075 1.154-.779 1.099-1.792.515-2.657-3.701-5.478-33.505-6.863-45.747-4.472-8.53 1.669-9.311-3.682-.446-5.787 26.09-6.289 29.044-8.599 30.485-9.573 1.154-.779.953-2.008.515-2.657-1.607-2.379-9.45-2.644-12.832-3.299-1.159-.161-1.334-1.198-.007-1.254 4.075-.339 18.289.346 21.844 5.607 1.802 2.667.084 5.718-7.742 8.275-3.611 1.18-8.43 2.127-13.636 3.124-1.108.224-1.295 1.19-.183 1.593 3.432 1.041 8.285 1.542 9.709 1.629 6.541.515 23.491 2.606 27.045 7.868 1.802 2.667.084 5.718-7.989 7.287-7.856 1.424-17.256 3.05-27.687 5.478-5.252 1.239-.31 4.514 4.669 5.979 3.722 1.159 2.454 2.856-.735 2.176-6.619-1.407-11.487-4.417-14.442-6.305Zm30.849 38.689c-4.321-4.771-.13-12.323 7.55-20.689 2.409-2.652 1.487-3.929.436-5.09-1.11-1.225-2.413-2.274-5.95-.478-3.221 1.626-13.499 6.477-16.89 7.787-3.202 1.259-4.927-2.46-2.579-3.884 2.607-1.657 45.454-20.048 48.601-22.664 1.154-.929 2.117-2.975.337-5.588-1.266-1.787-.182-2.534 1.827-.833 3.611 2.949 7.142 5.033 9.253 5.938 1.204.552 1.244.985.606 1.446-1.542 1.279-21.029 9.308-27.417 11.455-2.377.745-2.179 1.74-.64 1.755 12.516-.306 21.775 1.753 27.09 7.619 2.744 3.03 3.002 6.553.048 8.994-5.965 4.817-19.206 1.084-28.994-6.482-.829-.657-2.123-.659-2.604.364-5.163 11.015-7.134 17.261-5.032 19.582 1.577 1.74 8.031 1.997 10.39 1.621 3.657-.497 3.192 1.451-.847 2.175-3.541.626-11.856.647-15.185-3.028Zm14.27-22.081c8.72 5.48 17.641 6.906 21.046 4.057 1.922-1.507 2.44-3.267.279-5.652-3.855-4.255-12.606-5.365-18.709-5.235-7.636-.008-6.076 4.565-2.616 6.83Zm1.897 70.699c-3.424-2.539-4.068-8.973 1.776-15.685.588-.647 1.403-1.017 2.048-.864 2.736.837 6.896 1.215 9.692.364 2.848-.92 2.334-2.709 4.026-5.137.914-1.379 2.68-2.885 5.229-4.569 6.588-4.212 14.214-9.386 22.897-15.401 4.402-3.017-1.277-4.412-6.32-4.037-3.757.247-3.194-1.826-.1-2.348 6.571-.975 12.023.143 15.367.89 3.083.661 4.576 3.176-1.839 7.3-22.711 14.564-25.707 16.999-26.603 18.5-.759 1.17-.162 2.263.467 2.729 5.311 3.938 32.904-5.383 44.161-11.655 1.786-.95 3.122-1.583 4.916-1.228 3.083.662 4.087 2.813-2.276 6.867-22.623 14.739-25.313 15.884-28.594 17.242-23.625 9.664-34.942 14.267-44.847 7.032Zm5.624-2.328c11.6 8.6 24.703-.31 37.55-8.435 3.641-2.282 7.733-4.879 12.101-7.704.901-.632.687-1.657-.426-1.616-3.513.211-8.047 1.506-9.419 1.896-10.89 3.296-20.123 4.355-25.036 3.095-1.742-.425-3.38-.99-5.257-.65-3.076.644-6.722 2.056-9.173 5.653-.966 1.449-2.995 5.792-.34 7.761Zm57.428 17.397c-5.685-3.201-8.539-12.494 2.785-24.985 9.547-10.398 23.925-14.482 31.657-10.129 7.504 4.224 4.993 16.486-2.71 25.027-9.623 10.355-24.001 14.439-31.732 10.087Zm.555-2.583c2.762 1.655 10.96-.318 17.05-4.576 10.356-7.047 23.028-21.575 16.13-25.459-2.956-1.664-11.871 1.404-20.099 7.153-9.678 6.73-18.757 19.488-13.081 22.882Zm27.023 17.602c-2.987-1.2-3.353-4.722 2.212-10.642 5.468-5.677 12.343-12.29 19.301-20.275 3.495-4.033-2.352-3.945-7.217-2.337-3.652 1.158-3.633-.991-.691-2.246 6.11-2.608 11.748-2.874 15.253-2.966 3.069-.173 6.57 2.546 1.07 7.836-20.01 19.241-22.615 22.225-23.183 23.872-.518 1.291.417 2.23 1.144 2.522 6.134 2.464 31.033-13.313 40.577-22.134 1.569-1.338 2.62-2.322 4.526-2.4 3.069-.173 4.666 1.687-.544 7.187-18.638 19.792-22.05 22.452-22.618 24.099-.518 1.291.417 2.23 1.143 2.522 2.664 1.07 11.408-2.261 14.495-3.646 1.051-.515 1.777.245.709 1.035-3.024 2.629-17.2 9.214-23.093 6.847-2.986-1.2-3.352-4.722 2.261-10.528 3.058-3.178 7.085-6.435 10.677-10.242.712-.838.325-1.744-.822-1.455-3.345 1.094-7.484 3.462-8.713 4.187-5.545 3.303-20.595 11.131-26.487 8.764Zm46.883 35.469c-4.086-.859-7.462-8.058-1.588-6.823 3.746.787 6.39 4.277 9.284 4.885 4.171.877 8.229-4.048 16.727-19.95l11.857-22.574c1.441-2.63 1.925-4.929-1.629-6.209-2.804-1.034-2.258-2.786.488-2.742 1.774.017 4.583.608 6.442-1.046 8.268-8.039 17.848-15.981 25.801-14.487 1.872.394 2.249 1.984 1.036 3.951-1.317 2.035-3.494 3.088-6.473 2.462-8.051-1.871-13.986 3.104-15.446 5.819-1.356 2.648-.522 4.602 1.435 5.013l8.733 2.014c1.702.357-1.894 3.512-5.739 2.349-2.907-.967-5.6-1.266-6.263.194-6.958 11.96-13.715 24.228-15.855 28.489-7.965 15.481-20.212 20.462-28.81 18.655Zm56.185-5.326c-6.481-.748-12.712-8.21-7.111-24.113 4.774-13.284 16.446-22.619 25.261-21.602 8.554.988 10.99 13.265 7.197 24.123-4.86 13.274-16.533 22.609-25.347 21.592Zm-.488-2.596c3.187.456 9.981-4.539 13.946-10.824 6.817-10.509 12.871-28.811 5.007-29.719-3.37-.389-10.4 5.892-15.758 14.38-6.315 9.954-9.743 25.232-3.195 26.163Zm35.81 5.224c-2.691 1.318-4.958.197-2.206-6.688 10.145-25.534 11.258-29.28 11.076-31.019-.18-1.391-1.401-1.907-2.183-1.903-2.871.013-8.495 6.389-10.659 8.835-.691.873-1.65.443-1.134-.69 1.636-3.575 10.63-15.012 16.98-15.042 3.218-.015 5.146 3.108 2.746 10.687-1.373 4.008-2.83 8.538-4.373 13.416-.343 1.046.705 1.998 1.135 1.039 5.948-11.597 15.797-25.996 22.321-26.027 2.697-.012 5.14 1.629 5.593 5.454.545 4.956-3.442 8.019-5.269 8.028-1.826.008-.984-5.824-4.202-5.809-9.569.045-19.547 24.013-26.624 36.051-.949 1.57-1.552 2.878-3.201 3.668Zm60.829 21.677c-4.187.8-9.356-3.083-10.337-11.929-.078-.871.202-1.721.752-2.092 2.469-1.446 5.564-4.251 6.832-6.884 1.252-2.719-.412-3.552-1.053-6.441-.395-1.607-.307-3.926.18-6.942 1.364-7.699 2.722-16.814 4.178-27.277.763-5.282-4.111-2.049-7.25 1.916-2.363 2.931-3.507 1.113-1.795-1.517 3.733-5.495 8.248-8.748 11.062-10.703 2.575-1.82 5.436-1.215 4.125 6.297-4.666 26.574-4.904 30.427-4.407 32.103.346 1.351 1.555 1.652 2.324 1.505 6.494-1.24 18.326-27.854 21.335-40.384.512-1.957.95-3.369 2.427-4.448 2.575-1.82 4.838-1.101 3.511 6.325-4.48 26.626-5.459 29.382-6.682 32.715-8.892 23.926-13.171 35.37-25.202 37.756Zm2.097-5.714c14.183-2.708 16.503-18.383 19.226-33.338.788-4.225 1.648-8.994 2.528-14.121.146-1.091-.753-1.628-1.477-.781-2.224 2.727-4.342 6.94-4.985 8.214-4.951 10.244-10.424 17.754-14.679 20.515-1.493.994-3.018 1.816-4.039 3.428-1.61 2.699-3.041 6.337-2.054 10.577.412 1.692 2.233 6.127 5.48 5.506Zm53.221-30.824c-6.199 2.034-14.982-2.133-16.555-18.92-1.228-14.062 5.463-27.427 13.893-30.194 8.183-2.686 15.535 7.444 16.638 18.892 1.145 14.089-5.546 27.455-13.976 30.222Zm-1.531-2.153c3.085-.921 7.163-8.302 8.132-15.669 1.791-12.398-.376-31.554-7.897-29.085-3.224 1.058-6.977 9.705-8.289 19.657-1.567 11.684 1.719 26.993 8.054 25.097Zm33.249-8.915c-2.897 1.403-5.749-.695-6.387-8.795-.523-7.865-.792-17.4-2.021-27.92-.634-5.299-4.502-.913-6.584 3.769-1.6 3.481-3.177 2.022-2.127-1 2.18-6.275 5.775-10.626 8.065-13.281 1.936-2.388 6.303-3.15 6.518 4.478.779 27.749 1.236 31.684 2.072 33.212.607 1.252 1.93 1.191 2.635.85 5.95-2.882 11.023-31.919 10.914-44.914.065-2.062.044-3.501 1.269-4.964 1.936-2.388 4.386-2.318 4.952 5.236 2.11 27.105 1.784 31.419 2.62 32.947.607 1.252 1.93 1.191 2.635.85 2.583-1.251 6-9.962 7.052-13.178.325-1.124 1.376-1.15 1.243.171-.09 4.007-4.751 18.926-10.466 21.694-2.897 1.403-5.749-.695-6.27-8.754-.295-4.4.003-9.571-.398-14.789-.142-1.091-1.071-1.414-1.629-.371-1.441 3.211-2.472 7.867-2.762 9.264-1.286 6.325-5.616 22.727-11.331 25.495Z" fill="#fff"/><path d="M551.124 405.824c-1.533 2.574-4.043 2.875-5.504-4.394-5.468-26.926-6.584-30.671-7.687-32.028-.912-1.065-2.216-.83-2.869-.399-2.396 1.58-3.619 9.995-4.093 13.225-.102 1.109-1.14 1.273-1.327.042-.584-3.887.691-18.381 5.992-21.878 2.686-1.772 6.008-.212 8.143 7.446 1.042 4.107 2.298 8.697 3.674 13.625.284 1.063 1.683 1.287 1.519.248-1.361-12.962-.988-30.403 4.457-33.996 2.251-1.485 5.194-1.447 7.665 1.509 3.166 3.851 1.503 8.596-.022 9.602-1.525 1.006-4.008-4.338-6.694-2.566-7.987 5.27-3.236 30.794-2.58 44.742.064 1.834.274 3.258-.674 4.822Zm49.892-36.232c-1.062 2.801-3.482 3.534-6.184-3.37-10.064-25.567-11.813-29.061-13.135-30.205-1.083-.891-2.327-.433-2.895.105-2.085 1.973-1.827 10.471-1.732 13.735.092 1.11-.902 1.452-1.3.272-1.251-3.726-2.513-18.221 2.099-22.586 2.338-2.212 5.88-1.253 9.313 5.918 1.739 3.863 3.774 8.164 5.986 12.779.464.997 1.88.974 1.538-.02-3.592-12.528-6.256-29.769-1.517-34.253 1.958-1.854 4.863-2.327 7.81.153 3.787 3.243 2.974 8.205 1.647 9.46-1.327 1.256-4.701-3.575-7.039-1.363-6.949 6.577 2.165 30.887 5.235 44.509.381 1.795.836 3.161.174 4.866Zm35.761-35.51c-6.838 8.116-16.065 7.052-23.85-5.308-9-14.294-8.594-29.762-2.429-37.079 7.623-9.047 19.787-1.074 13.953 10.845l-8.153 16.563c-.788 1.61-.708 3.27.464 4.713 6.491 8.767 13.568 9.953 17.929 4.641 3.577-4.38 2.993-9.763 1.615-14.336-1.008-3.124.764-3.338 1.705-.27 2.859 8.892 1.905 16.505-1.234 20.231ZM619.214 307c1.742-4.902.486-9.486-2.063-11.861-2.426-2.386-4.692-1.451-6.093.212-3.251 3.858-3.354 10.596-.551 17.394 2.951 6.353 6.153 1.203 8.707-5.745Zm71.902-2.114c-2.857 4.368-9.34 2.519-12.838 8.026-1.667 2.548-1.902 5.928-3.14 7.821-1.095 1.674-2.974 2.004-3.994 1.338-2.256-1.476.36-5.794.873-7.849 2.045-8.848-9.581-27.783-21.578-39.475-.778-.717-2.08-.634-1.54.447 8.935 17.486 12.353 27.517 8.163 33.923-2.191 3.349-5.924 4.13-10.728.987-11.284-7.381-25.527-33.12-16.861-46.369 2.238-3.421 7.262-2.838 7.962-2.796 3.139.286 1.572-5.104.099-7.938-1.276-2.498.261-3.26 1.552-1.896 25.054 26.055 32.049 42.376 36.762 57.1 1.215 3.705 7.858-.889 13.096-8.897 2.142-3.276 4.933 1.356 2.172 5.578Zm-36.414-.742c4.285-6.552-7.737-34.892-16.836-40.844-2.111-1.381-4.186-1.387-6.139 1.598-6.094 9.318 9.319 33.744 18.346 39.648 2.111 1.381 3.439 1.418 4.629-.402Zm26.072-32.97c-1.366 2.914-4.903 3.082-10.501-2.808-5.361-5.779-11.576-13.015-19.157-20.41-3.83-3.717-4.071 2.126-2.739 7.074.95 3.711-1.194 3.571-2.282.563-2.26-6.246-2.209-11.89-2.103-15.395 0-3.074 2.911-6.417 7.884-.628 18.084 21.06 20.918 23.829 22.53 24.489 1.26.59 2.249-.291 2.582-1 2.805-5.986-11.546-31.733-19.817-41.758-1.248-1.641-2.171-2.746-2.141-4.654 0-3.074 1.946-4.563 7.145.947 18.712 19.722 21.176 23.278 22.789 23.938 1.26.591 2.249-.291 2.581-.999 1.219-2.6-1.615-11.517-2.824-14.677-.455-1.078.345-1.76 1.074-.65 2.454 3.167 8.231 17.691 5.536 23.441-1.365 2.915-4.902 3.082-10.384-2.849-3.001-3.232-6.026-7.436-9.625-11.236-.797-.758-1.723-.423-1.498.739.903 3.401 3.035 7.667 3.69 8.934 2.986 5.723 9.954 21.189 7.26 26.939Zm23.583-55.493c-3.239 10.106-12.178 12.63-24.077 4.158-13.758-9.8-19.262-24.261-16.342-33.373 3.611-11.266 17.893-8.515 17.028 4.727l-1.245 18.418c-.117 1.79.589 3.295 2.222 4.184 9.336 5.641 16.332 4.047 18.347-2.523 1.643-5.411-.943-10.168-3.957-13.874-2.119-2.507-.561-3.377 1.475-.898 6.025 7.138 8.036 14.543 6.549 19.181Zm-26.539-18.372c-.252-5.196-3.157-8.959-6.417-10.187-3.151-1.284-4.892.442-5.555 2.513-1.54 4.805.925 11.076 6.103 16.298 5.144 4.754 6.148-1.227 5.869-8.624Zm34.692-9.504c-2.075 9.874-11.896 7.543-10.912 2.861.769-3.66 7.305-5.575 8.218-9.916.841-4.001-1.105-7.433-5.715-8.757-6.429-1.974-15.849 3.512-21.701 1.749-10.596-3.294-13.144-13.163-12.088-18.185 2.13-10.13 11.969-6.195 11.092-2.024-.59 2.809-8.274 1.727-9.276 6.494-.662 3.15 1.919 6.092 4.182 6.746 7.092 2.202 17.794-3.46 25.227-1.186 11.447 3.473 12.333 15.748 10.973 22.218Z" fill="#fff"/><path d="M719.137 153.128c-.393 3.194-4.046 5.812-10.58 2.64-5.863-2.914-26.402-13.334-28.152-14.075-2.083-.87-3.031.415-3.303 5.465-.104 2.266-2.273 2.086-2.428-.212-.65-8.231-2.294-10.537-10.815-15.356-2.29-1.334-2.088-2.974-.004-2.104l7.752 3.235c1.998.859 3.625-.255 3.817-1.809l1.224-9.928c.255-2.072 3.52 2.011 3.254 4.17l-.851 6.906c-.213 1.727.738 2.545 2.218 3.341 1.479.796 20.139 10.108 26.758 13.29.908.462 4.331 2.55 4.8-1.249.34-2.763-5.281-9.065-7.507-10.917-.865-.807-.814-2.642.903-1.641 3.187 1.882 13.68 12.028 12.914 18.244Z" fill="#fff"/></svg>