<svg width="797" height="478" fill="none" xmlns="http://www.w3.org/2000/svg"><g clip-path="url(#a)" fill="#fff"><circle cx="397.236" cy="88.571" r="300.165"/><path d="M6.088 65.156c-.004-2.826 1.847-2.634 2.144.483.597 7.697 2.744 10.227 7.91 11.778 2.828.97 7.604 2.23 11.796 3.295 2.047.484 3.41.58 6.334.282 8.475-1.182 27.468-5.303 30.098-5.892 4.091-.98 7.108-3.226 7.78-9.95.288-2.826 2.335-2.147 2.144.484-.286 3.8-.67 7.503-.664 11.4.009 5.847.696 9.549.702 13.543.005 2.826-1.847 2.537-2.144-.483-.593-5.553-2.643-8.084-7.903-7.101-6.04.983-15.294 2.362-22.697 3.64-3.507.687-3.502 3.513-.089 5.846 7.219 5.25 17.363 12.348 22.825 16.042 5.17 3.5 7.31 1.938 7.887-3.227.288-2.827 2.14-2.147 2.145.678.006 3.995-.671 6.919-.667 9.55.006 3.898.692 6.82.698 10.62.004 2.728-1.848 2.243-2.145-.777-.693-7.111-3.72-10.907-7.816-13.824-7.999-5.834-22.63-16.334-30.043-21.39-1.853-1.264-3.316-1.846-6.24-2.62l-12.086-2.71c-4.094-.871-7.112.692-7.879 9.17-.19 2.729-2.238 2.05-2.047-.484.284-5.651.667-10.037.66-14.908-.006-3.898-.694-7.502-.703-13.445Zm1.692 66.857c-1.044-7.233 5.255-16.115 24.08-14.598 15.752 1.37 29.2 11.342 30.62 21.178 1.377 9.548-11.223 15.697-24.067 14.695C22.648 151.821 9.2 141.85 7.78 132.013Zm2.671-1.271c.418 3.582 7.771 9.511 15.712 12.008 13.33 4.377 34.883 5.698 33.618-3.078-.543-3.761-9.356-9.578-20.081-12.953-12.587-3.992-30.113-3.334-29.249 4.023Zm3.589 37.918c-.979-3.47 1.895-6.204 10.953-5.315 8.776.968 19.344 2.545 31.186 3.257 5.968.343 1.891-4.785-2.862-8-3.525-2.449-1.605-3.901 1.52-2.15 6.492 3.637 10.583 8.457 13.062 11.504 2.252 2.604 2.235 7.57-6.22 6.308-30.753-4.594-35.182-4.864-37.031-4.241-1.5.422-1.693 1.894-1.455 2.738 2.008 7.127 33.032 18.428 47.385 20.861 2.26.477 3.851.737 5.224 2.375 2.253 2.604 1.694 5.292-6.748 4.432-30.304-2.999-34.997-4.207-36.847-3.585-1.5.423-1.693 1.895-1.455 2.739.872 3.095 9.807 8.574 13.146 10.366 1.176.58.998 1.743-.433 1.337-4.4-.886-19.937-8.959-21.866-15.805-.978-3.47 1.896-6.203 10.886-5.194 4.91.54 10.553 1.885 16.387 2.468 1.23.058 1.77-.904.729-1.724-3.258-2.22-8.19-4.272-9.673-4.866-6.722-2.661-23.96-10.659-25.889-17.505Zm1.15 65.7c-2.044-4.206 2.012-12.135 4.95-6.088 1.874 3.856.6 8.592 2.048 11.571 2.086 4.294 9.23 4.506 29.14 1.115l28.121-4.998c3.318-.529 5.684-1.678 4.379-5.702-1.01-3.193.916-3.912 2.762-1.451 1.202 1.583 2.607 4.475 5.347 4.985 12.791 1.801 26.397 4.832 30.532 12.897.937 1.928-.212 3.353-2.786 3.629-2.705.231-5.131-.974-6.622-4.041-3.87-8.411-12.347-10.25-15.752-9.678-3.276.616-4.432 2.695-3.453 4.71l4.211 9.112c.852 1.753-4.41.735-6.018-3.467-1.14-3.238-2.723-5.827-4.47-5.411-15.363 2.049-30.86 4.488-36.102 5.518-19.17 3.573-31.986-3.849-36.287-12.701Zm43.336 45.616c-3.796-6.245-1.484-16.886 16.428-22.872 15.028-4.916 31.309-1.016 36.472 7.476 5.011 8.243-4.169 18.84-16.377 22.955-15.078 4.833-31.36.933-36.523-7.559Zm1.96-2.217c1.789 3.131 10.877 5.702 19.161 4.885 13.98-1.2 34.325-8.437 29.719-16.013-1.974-3.247-12.362-5.142-23.552-4.042-13.144 1.263-29.009 8.741-25.329 15.17Zm18.287 33.577c-2.265-2.805-.7-6.449 7.977-9.197 8.45-2.564 18.785-5.274 29.951-9.281 5.621-2.034-.145-5.143-5.78-6.228-4.204-.864-3.011-2.954.551-2.574 7.4.788 13.058 3.608 16.536 5.433 3.096 1.508 5.034 6.08-3.235 8.248-30.079 7.881-34.257 9.376-35.712 10.676-1.213.98-.81 2.408-.26 3.091 4.653 5.761 37.62 3.938 51.772.526 2.265-.452 3.83-.839 5.737.126 3.096 1.508 3.641 4.199-4.459 6.731-29.038 9.171-33.828 9.907-35.283 11.207-1.213.98-.811 2.408-.26 3.091 2.02 2.501 12.39 4.022 16.165 4.355 1.309.07 1.603 1.21.128 1.399-4.393.918-21.853-.388-26.322-5.922-2.265-2.805-.699-6.449 7.963-9.06 4.726-1.436 10.444-2.421 16.036-4.181 1.154-.431 1.271-1.527-.009-1.872-3.869-.758-9.21-.704-10.807-.666-7.227.2-26.22-.368-30.69-5.902Zm60.364 64.616c-3.358-1.094-4.729-4.069 3.117-7.584 28.062-12.745 32.114-14.715 33.43-16.152 1.054-1.149.73-2.238-.132-3.028-5.46-5.003-38.289 1.261-51 7.058-8.858 4.042-11.104-1.583-1.995-6.189 26.781-13.653 29.396-16.94 30.713-18.377 1.053-1.149.514-2.436-.133-3.029-2.371-2.172-10.983-.416-14.838-.247-1.305.126-1.766-.957-.336-1.365 4.352-1.431 20.015-4.392 25.259.413 2.658 2.435 1.582 6.206-6.276 11.033-3.626 2.227-8.63 4.515-14.04 6.958-1.149.533-1.101 1.635.216 1.784 4.011.238 9.427-.481 11.001-.757 7.26-1.145 26.27-3.287 31.514 1.518 2.658 2.435 1.582 6.207-6.803 10.021-8.187 3.6-18.002 7.822-28.733 13.188-5.398 2.719.84 4.998 6.646 5.295 4.357.292 3.418 2.471-.233 2.562-7.578.194-13.665-1.816-17.377-3.102Zm28.855 23.681c-6.47-4.348-6.892-14.375 5.931-25.245 14.341-12.08 29.998-14.589 38.651-8.773 4.69 3.152 4.787 6.152 4.941 8.369.315 2.325 1.397 2.113 2.888.767l8.107-6.996c2.277-1.991 1.502-4.156-.761-6.029-1.832-1.466-.908-2.841 1.789-1.615 3.939 1.825 7.933 3.219 10.797 3.5 1.567.114 2.185 1.116 1.074 1.895-11.193 8.444-17.022 13.449-21.17 17l-13.311 11.247c-4.148 3.551-10.411 9.203-12.501 11.438-2.089 2.235-1.394 4.346.869 6.219 1.832 1.466.908 2.841-1.79 1.615-3.938-1.826-7.933-3.219-10.796-3.5-1.567-.114-2.266-1.17-1.074-1.896 1.897-1.425 8.778-6.074 10.893-7.823.921-.672.033-1.621-1.375-.924-8.881 4.48-17.178 4.773-23.162.751Zm8.275-1.482c5.122 3.208 15.806.762 25.404-7.58l7.022-6.081c7.076-6.162 7.56-12.646 1.818-16.505-6.227-4.185-16.831-1.333-27.729 7.895-11.088 9.336-12.851 18.247-6.515 22.271Zm54.906 38.218c-3.29-1.472-4.891-6.245.654-12.196 5.049-5.32 22.963-23.884 24.333-25.513 1.617-1.945.552-3.382-4.765-5.334-2.392-.857-1.486-3.12 1.025-2.53 9.028 2.011 12.038 1.01 20.001-6.529 2.182-2.012 3.871-1.256 2.254.689l-6.014 7.236c-1.577 1.856-.92 3.965.681 4.681l10.228 4.577c2.134.955-3.312 3.108-5.536 2.113l-7.115-3.184c-1.779-.796-2.968-.047-4.307 1.275-1.338 1.323-17.448 18.239-23.033 24.28-.793.819-4.155 3.798-.241 5.549 2.846 1.274 11.443-2.672 14.158-4.446 1.149-.66 3.097-.002 1.461 1.508-3.065 2.792-17.38 10.69-23.784 7.824Zm44.529 17.39c-5.292-1.687.784-8.238 6.355-6.463 9.191 2.928 17.879-4.12 23.973-23.245 1.716-5.384 1.093-8.242-1.692-9.129-7.984-2.544-33.624 18.226-41.736 29.242-5.148 6.848-9.637 2.963-6.329-3.244 15.34-28.245 42.296-56.675 74.046-46.557 2.599.828 3.211 2.761 1.728 4.845-1.512 2.177-3.778 3.194-7.028 2.158-35.278-11.241-43.796 10.997-52.116 24.912-.933 1.646.029 2.157 1.219 1.309 14.662-9.747 29.995-19.996 36.586-17.896 4.828 1.539 6.789 5.334 5.073 10.718-5.828 18.289-29.774 36.633-40.079 33.35Zm44.456 11.479c-11.681-2.205-15.721-11.792-7.947-26.19 8.993-16.646 24.308-24.762 34.84-22.774 13.021 2.458 11.936 18.713-2.903 19.581l-20.646 1.16c-2.005.117-3.58 1.109-4.343 3.047-4.981 11.157-2.243 18.714 5.339 20.046 6.241 1.079 11.172-2.452 14.875-6.314 2.494-2.703 3.677-1.091 1.202 1.515-7.103 7.683-15.055 10.941-20.417 9.929Zm16.756-32.037c5.742-.999 9.523-4.747 10.438-8.541.992-3.68-1.167-5.376-3.561-5.828-5.553-1.048-12.183 2.559-17.273 9.035-4.574 6.375 2.213 6.664 10.396 5.334Zm38.34 38.896c-11.299-.252-10.756-11.545-5.398-11.426 4.189.094 7.643 6.895 12.611 7.006 4.579.102 7.956-2.747 8.465-8.096.849-7.485-7.132-16.727-6.396-23.533 1.444-12.345 11.785-17.183 17.533-17.055 11.592.258 9.286 11.902 4.513 11.796-3.215-.072-3.606-8.754-9.061-8.876-3.605-.08-6.313 3.368-6.566 5.994-.964 8.263 7.474 18.879 6.501 27.531-1.466 13.32-14.798 16.824-22.202 16.659Zm47.747-.489c-11.849.944-18.269-7.244-14.553-23.179 4.299-18.425 16.941-30.282 27.625-31.133 13.21-1.053 16.437 14.916 2.348 19.655l-19.614 6.547c-1.904.641-3.163 2.012-3.389 4.082-1.873 12.074 2.756 18.646 10.421 17.937 6.306-.6 10.134-5.303 12.692-10.003 1.695-3.263 3.261-2.019 1.558 1.146-4.832 9.28-11.649 14.515-17.088 14.948Zm7.743-35.316c5.277-2.473 7.94-7.084 7.825-10.984-.011-3.812-2.539-4.881-4.968-4.688-5.633.449-11.082 5.673-14.289 13.259-2.738 7.354 3.887 5.848 11.432 2.413Zm29.214 30.993c-6.421 1.178-10.514-2.232-11.938-9.995-2.883-15.717 6.478-42.992 25.071-46.403 2.491-.457 6.501-.201 8.751 1.268 3.01 1.825-.574 6.049-3.928 6.664-4.121.756-4.302-3.47-10.532-2.328-9.008 1.653-14.071 24.276-11.909 36.064 1.055 5.75 3.481 8.178 7.602 7.422 7.476-1.371 10.904-10.222 12.242-12.647.652-1.308 2.326-.823 1.901.642-.728 2.511-5.472 17.151-17.26 19.313Z"/><path d="M494.67 459.471c-2.474 2.268-5.264 1.782-4.488-6.487 2.813-30.648 2.823-35.025 2.077-36.835-.635-1.438-2.109-1.606-2.949-1.354-3.08.923-7.104 9.556-8.653 12.869-.467 1.157-1.634.998-1.438-.383.626-4.359 6.667-19.495 13.48-21.538 3.453-1.036 6.514 1.709 6.335 10.612-.206 4.741-.337 10.07-.45 15.8-.038 1.232 1.39 1.923 1.549.756 2.718-14.344 8.74-32.934 15.74-35.032 2.893-.868 6.038.122 7.736 4.088 2.155 5.152-1.158 9.706-3.118 10.294-1.96.588-2.902-5.945-6.355-4.91-10.267 3.078-13.397 31.991-17.188 47.165-.523 1.988-.757 3.584-2.278 4.955Zm50.89-16.759c-10.938 4.655-19.624-1.073-21.156-17.364-1.769-18.837 6.457-34.092 16.319-38.289 12.193-5.19 20.32 8.93 8.463 17.894l-16.523 12.433c-1.602 1.211-2.361 2.911-1.919 4.946 2.055 12.044 8.53 16.807 15.574 13.703 5.79-2.569 7.928-8.244 8.862-13.513.573-3.632 2.452-2.949 1.841.593-1.638 10.333-6.441 17.46-11.461 19.597Zm-3.863-35.948c4.219-4.02 5.282-9.237 3.935-12.899-1.219-3.611-3.957-3.823-6.198-2.869-5.2 2.213-8.71 8.895-9.345 17.107-.262 7.843 5.542 4.313 11.608-1.339Z"/><path d="M577.693 427.629c-3.164 1.727-7.932.112-9.312-7.905-1.177-7.239-5.107-32.736-5.574-34.812-.569-2.465-2.358-2.487-7.131.563-2.13 1.385-3.383-.706-1.393-2.348 7.066-5.967 8.091-8.969 6.912-19.871-.281-2.955 1.344-3.842 1.913-1.377l2.119 9.167c.522 2.38 2.598 3.133 4.138 2.292l9.834-5.369c2.053-1.121.469 4.517-1.669 5.685l-6.842 3.735c-1.71.934-1.834 2.334-1.592 4.2s3.953 24.929 5.38 33.031c.171 1.128.508 5.607 4.271 3.552 2.736-1.494 4.801-10.725 5.033-13.96.17-1.314 1.873-2.466 2.084-.25.367 4.129-2.014 20.305-8.171 23.667Zm51.853-32.678c-6.086 4.869-15.78 2.268-22.309-13.222-7.229-17.302-4.933-32.99 3.208-39.504 4.413-3.531 7.304-2.724 9.465-2.207 2.313.395 2.434-.7 1.597-2.526l-4.246-9.83c-1.218-2.769-3.515-2.678-5.98-1.08-1.948 1.309-2.983.015-1.005-2.191 2.922-3.211 5.447-6.605 6.573-9.253.578-1.46 1.72-1.75 2.131-.456 4.703 13.208 7.731 20.268 9.877 25.29l6.743 16.068c2.145 5.022 5.661 12.691 7.168 15.354 1.506 2.663 3.728 2.632 6.193 1.034 1.948-1.309 2.983-.015 1.005 2.191-2.922 3.211-5.448 6.605-6.573 9.253-.579 1.46-1.796 1.811-2.131.456-.791-2.237-3.166-10.195-4.201-12.736-.365-1.08-1.536-.517-1.293 1.035 1.614 9.815-.592 17.819-6.222 22.324Zm1.065-8.339c4.595-3.927 5.461-14.853.378-26.508l-3.698-8.522c-3.759-8.597-9.801-11.001-15.203-6.679-5.858 4.687-6.313 15.659-.774 28.821 5.586 13.375 13.56 17.727 19.297 12.888Zm32.694-20.41c-2.566 2.533-6.209 1.2-9.389-7.571-2.976-8.564-6.491-18.784-11.033-30.044-2.306-5.665-4.964.518-5.623 6.37-.58 4.406-2.64 3.29-2.478-.429.327-7.715 2.709-13.762 4.18-17.404 1.331-3.368 4.301-4.519 7.21 3.699 10.624 29.352 12.943 32.95 14.243 34.405 1.095 1.11 2.338.705 2.962.089 2.288-2.259 1.938-11.907 2.033-15.834-.06-1.309 1.045-1.715 1.38-.266 1.072 4.554 1.578 21.989-3.485 26.985Zm-24.834-58.314c-2.149 2.122-5.456 2.1-7.578-.05-2.053-2.08-2.032-5.387.118-7.509a5.24 5.24 0 0 1 7.441.049c2.122 2.15 2.1 5.457.019 7.51Zm45.846 36.986c-7.341 8.595-15.746 1.031-12.265-3.043 2.721-3.186 10.175-1.561 13.402-5.339 2.974-3.482 2.903-7.9-.918-11.677-5.262-5.391-17.468-5.053-22.274-9.928-8.65-8.926-5.858-19.996-2.124-24.367 7.531-8.816 15.092.333 11.991 3.964-2.088 2.445-9.062-2.743-12.606 1.406-2.341 2.741-1.383 7.02.491 8.877 5.791 5.971 19.351 6.149 25.439 12.374 9.39 9.559 3.673 22.103-1.136 27.733Zm26.981-33.214c-3.743 5.349-9.051 5.798-15.518 1.274-13.093-9.16-25.594-35.147-14.758-50.635 1.452-2.076 4.484-4.711 7.118-5.247 3.425-.815 3.841 4.708 1.886 7.503-2.401 3.433-5.499.552-9.13 5.742-5.25 7.505 7.041 27.161 16.861 34.031 4.791 3.351 8.223 3.374 10.625-.059 4.356-6.227.578-14.935-.173-17.601-.456-1.389 1.077-2.219 1.804-.878 1.245 2.298 8.154 16.05 1.285 25.87Zm23.123-35.645c-3.524 6.403-13.902 9.7-28.015-2.85-11.75-10.581-16.479-26.641-11.688-35.348 4.651-8.451 18.413-5.771 28.062 2.765 11.703 10.666 16.432 26.726 11.641 35.433Zm-2.899-.594c1.824-3.111-.475-12.272-5.309-19.048-8.005-11.524-24.415-25.559-28.69-17.791-1.832 3.329 1.7 13.28 8.228 22.434 7.643 10.768 22.03 20.799 25.771 14.405Zm20.302-32.951c-1.293 3.365-5.231 3.835-11.956-2.298-6.452-6.028-13.975-13.616-23.036-21.273-4.577-3.846-4.379 2.702-2.495 8.123 1.358 4.071-1.048 4.086-2.504.812-3.024-6.799-3.418-13.108-3.58-17.033-.246-3.434 2.739-7.402 8.758-1.332 21.889 22.085 25.275 24.952 27.129 25.56 1.456.559 2.491-.504 2.805-1.323 2.656-6.912-15.436-34.532-25.478-45.071-1.526-1.734-2.645-2.895-2.765-5.029-.246-3.434 1.81-5.254 8.059.487 22.483 20.539 25.521 24.315 27.375 24.923 1.455.56 2.49-.504 2.804-1.323 1.154-3.001-2.725-12.738-4.328-16.172-.595-1.168.244-1.994 1.147-.812 2.995 3.343 10.611 19.109 8.06 25.748-1.293 3.365-5.231 3.835-11.83-2.353-3.611-3.371-7.327-7.826-11.651-11.784-.952-.783-1.959-.335-1.616.945 1.281 3.728 4.004 8.323 4.837 9.687 3.793 6.155 12.816 22.878 10.265 29.518Zm25.758-84.483c.745 3.453-1.135 6.135-8.122 1.124-25.136-17.834-28.878-20.344-30.782-20.758-1.523-.332-2.302.496-2.551 1.638-1.574 7.236 20.361 32.452 31.768 40.518 7.951 5.619 4.22 10.392-4.344 4.838-25.277-16.27-29.433-16.875-31.337-17.289-1.524-.332-2.364.781-2.551 1.638-.684 3.142 5.169 9.701 7.254 12.947.766 1.064.062 2.007-1.01.976-3.427-3.039-13.869-15.083-12.356-22.034.766-3.522 4.567-4.49 12.692-.129 3.75 2.012 8.245 5.184 13.079 8.63 1.039.724 1.967.128 1.433-1.085-1.812-3.585-5.161-7.903-6.191-9.125-4.644-5.697-16.062-21.045-14.549-27.995.767-3.523 4.567-4.491 12.083.834 7.231 5.263 15.82 11.62 25.857 18.191 5.066 3.297 3.896-3.24 1.231-8.407-1.94-3.912.415-4.198 2.331-1.088 3.981 6.45 5.309 12.722 6.065 16.576Zm5.326-31.101c-.349 3.589-4.364 6.625-11.771 3.262-6.65-3.093-29.95-14.167-31.93-14.947-2.359-.914-3.382.553-3.541 6.215-.051 2.541-2.485 2.402-2.724-.167-.967-9.198-2.874-11.732-12.555-16.882-2.603-1.428-2.424-3.27-.065-2.356l8.774 3.398c2.262.904 4.052-.39 4.221-2.136l1.084-11.152c.226-2.328 4 2.15 3.765 4.575l-.754 7.758c-.188 1.94.9 2.829 2.58 3.677 1.679.849 22.843 10.736 30.347 14.108 1.029.492 4.923 2.73 5.338-1.537.301-3.103-6.175-9.998-8.721-12.007-.992-.88-.988-2.935.964-1.865 3.622 2.017 15.666 13.074 14.988 20.056Zm-20.875-35.28c4.932 1.404 4.952 4.23-.27 2.722-17.317-4.766-32.952-6.855-36.927-7.647-5.725-.937-7.2-4-7.144-6.045.049-1.753 1.672-4.048 7.078-2.144 4.248 1.482 19.754 8.245 37.263 13.114Zm21.919 7.525c-.078 2.825-2.564 4.608-5.37 3.849-2.806-.76-4.963-3.841-4.982-6.668-.017-2.925 2.466-4.611 5.272-3.851 2.806.76 5.157 3.846 5.08 6.67Z"/></g><defs><clipPath id="a"><path fill="#fff" transform="translate(0 -216)" d="M0 0h797v694H0z"/></clipPath></defs></svg>