<svg width="375" height="84" fill="none" xmlns="http://www.w3.org/2000/svg"><path d="M2.184 84.215c-2.966 0-2.747-1.538-.33-3.954C20.2 62.245 41.621 43.13 46.014 25.664c1.978-8.02-1.098-14.281-7.799-14.281-6.481 0-11.754 2.966-19.773 12.084-1.538 1.757-2.747 1.538-1.209-.66C25.253 11.384 33.163 6 41.621 6c10.765 0 16.038 7.47 13.292 18.346-4.284 17.356-29.99 37.24-42.843 48.774-4.614 4.175-1.977 5.383.55 5.383h3.075c14.062 0 20.433-2.087 28.452-9.228 3.955-3.515 5.054-2.856 2.417 1.538-4.943 8.02-11.315 13.402-17.576 13.402H2.184Zm104.482 2.565c-11.278 0-17.13-16.386-11.49-39.05 5.638-22.662 19.789-39.048 31.068-39.048 11.278 0 17.13 16.386 11.491 39.049-5.639 22.663-19.79 39.048-31.069 39.048Zm.958-3.618c8.086 0 15.96-13.726 21.386-35.431 5.426-21.706 4.362-35.431-3.724-35.431s-15.96 13.725-21.386 35.43c-5.427 21.706-4.363 35.432 3.724 35.432Zm114.556 1.054c-2.961 0-2.742-1.536-.329-3.95 18.318-17.988 39.707-37.073 44.094-54.514 1.975-8.007-1.097-14.259-7.787-14.259-6.472 0-11.737 2.962-19.744 12.066-1.536 1.755-2.742 1.535-1.207-.659 8.008-11.407 15.905-16.782 24.351-16.782 10.749 0 16.014 7.46 13.272 18.318-4.278 17.33-29.945 37.184-42.778 48.701-4.607 4.168-1.974 5.375.548 5.375h3.072c14.04 0 20.402-2.084 28.409-9.214 3.948-3.51 5.045-2.852 2.413 1.536-4.936 8.007-11.298 13.382-17.55 13.382H222.18Z" fill="#fff"/><path d="M167.44 67.92h.64v.808h.016c.107-.267.248-.485.424-.656.176-.176.411-.264.704-.264.139 0 .264.008.376.024v.64a1.616 1.616 0 0 0-.264-.024 1.205 1.205 0 0 0-1.104.672 1.591 1.591 0 0 0-.152.704V72h-.64v-4.08Zm2.655-1.56h.768v.768h-.768v-.768Zm.064 1.56h.64V72h-.64v-4.08Zm4.475 3.872v-.64h-.016c-.117.176-.28.328-.488.456-.202.123-.472.184-.808.184-.336 0-.642-.072-.92-.216-.272-.15-.49-.37-.656-.664-.165-.293-.248-.664-.248-1.112 0-.448.083-.819.248-1.112a1.61 1.61 0 0 1 .656-.664c.278-.144.584-.216.92-.216.336 0 .606.064.808.192.208.128.371.27.488.424h.016v-.504h.64v3.808c0 .581-.17 1.016-.512 1.304-.336.288-.789.432-1.36.432-.565 0-.997-.12-1.296-.36a1.295 1.295 0 0 1-.488-.928h.672a.9.9 0 0 0 .312.52c.171.139.438.208.8.208.395 0 .699-.088.912-.264.214-.176.32-.459.32-.848Zm-1.232-3.424c-.277 0-.509.064-.696.192a1.172 1.172 0 0 0-.408.52 1.93 1.93 0 0 0-.128.72c0 .267.043.51.128.728.091.213.227.384.408.512.187.128.419.192.696.192.379 0 .678-.117.896-.352.224-.24.336-.6.336-1.08 0-.48-.112-.837-.336-1.072-.218-.24-.517-.36-.896-.36Zm5.516.944c0-.267-.069-.49-.208-.672-.133-.181-.36-.272-.68-.272-.357 0-.648.104-.872.312a1.01 1.01 0 0 0-.328.776V72h-.64v-5.72h.64v2.128h.016c.107-.144.269-.28.488-.408.224-.128.509-.192.856-.192.251 0 .477.048.68.144.208.09.373.235.496.432.128.197.192.453.192.768V72h-.64v-2.688Zm1.125-1.392h.6v-1.36h.64v1.36h.8v.56h-.8v2.456c0 .213.032.357.096.432.064.075.186.112.368.112.069 0 .125-.003.168-.008l.168-.016V72a2.26 2.26 0 0 1-.424.04 1.49 1.49 0 0 1-.528-.088.707.707 0 0 1-.36-.336c-.086-.165-.128-.403-.128-.712V68.48h-.6v-.56Zm4.335 1.656c.181.043.362.09.544.144a1.9 1.9 0 0 1 .504.224c.154.09.277.21.368.36.09.144.136.328.136.552 0 .384-.144.69-.432.92-.283.224-.686.336-1.208.336-.587 0-1.038-.139-1.352-.416a1.42 1.42 0 0 1-.48-1.056h.672c.01.165.053.317.128.456.074.139.194.25.36.336.17.08.394.12.672.12.261 0 .461-.035.6-.104a.632.632 0 0 0 .288-.256.7.7 0 0 0 .08-.312c0-.187-.056-.325-.168-.416a1.001 1.001 0 0 0-.416-.192 14.48 14.48 0 0 0-.504-.12c-.176-.037-.358-.08-.544-.128a2.468 2.468 0 0 1-.504-.208 1.106 1.106 0 0 1-.368-.336.944.944 0 0 1-.136-.528c0-.347.13-.624.392-.832.261-.208.626-.312 1.096-.312.352 0 .648.059.888.176.24.112.424.267.552.464.128.192.202.405.224.64h-.672a1.16 1.16 0 0 0-.12-.32.65.65 0 0 0-.28-.28c-.134-.08-.328-.12-.584-.12-.288 0-.499.053-.632.16a.485.485 0 0 0-.192.4c0 .155.05.272.152.352.101.075.234.13.4.168.17.037.349.08.536.128ZM286.44 67.92h.64v.808h.016c.107-.267.248-.485.424-.656.176-.176.411-.264.704-.264.139 0 .264.008.376.024v.64a1.616 1.616 0 0 0-.264-.024 1.205 1.205 0 0 0-1.104.672 1.591 1.591 0 0 0-.152.704V72h-.64v-4.08Zm4.339 4.2c-.427 0-.789-.093-1.088-.28a1.87 1.87 0 0 1-.672-.776 2.677 2.677 0 0 1-.224-1.112c0-.437.08-.816.24-1.136a1.8 1.8 0 0 1 .696-.744 1.98 1.98 0 0 1 1.048-.272c.4 0 .739.085 1.016.256.283.165.499.4.648.704.149.299.224.648.224 1.048v.184a.925.925 0 0 1-.008.136h-3.192c.005.24.056.472.152.696.096.219.24.397.432.536s.437.208.736.208c.267 0 .48-.048.64-.144a1.18 1.18 0 0 0 .376-.344c.085-.128.139-.24.16-.336h.648c-.069.25-.181.483-.336.696a1.664 1.664 0 0 1-.6.496c-.245.123-.544.184-.896.184Zm-.032-3.768a1.29 1.29 0 0 0-.64.16 1.177 1.177 0 0 0-.448.424 1.354 1.354 0 0 0-.192.632h2.52c0-.224-.051-.427-.152-.608a1.101 1.101 0 0 0-.432-.44 1.224 1.224 0 0 0-.656-.168Zm4.217 1.224c.181.043.362.09.544.144a1.9 1.9 0 0 1 .504.224c.154.09.277.21.368.36.09.144.136.328.136.552 0 .384-.144.69-.432.92-.283.224-.686.336-1.208.336-.587 0-1.038-.139-1.352-.416a1.42 1.42 0 0 1-.48-1.056h.672c.01.165.053.317.128.456.074.139.194.25.36.336.17.08.394.12.672.12.261 0 .461-.035.6-.104a.632.632 0 0 0 .288-.256.7.7 0 0 0 .08-.312c0-.187-.056-.325-.168-.416a1.001 1.001 0 0 0-.416-.192 14.48 14.48 0 0 0-.504-.12c-.176-.037-.358-.08-.544-.128a2.468 2.468 0 0 1-.504-.208 1.106 1.106 0 0 1-.368-.336.944.944 0 0 1-.136-.528c0-.347.13-.624.392-.832.261-.208.626-.312 1.096-.312.352 0 .648.059.888.176.24.112.424.267.552.464.128.192.202.405.224.64h-.672a1.16 1.16 0 0 0-.12-.32.65.65 0 0 0-.28-.28c-.134-.08-.328-.12-.584-.12-.288 0-.499.053-.632.16a.485.485 0 0 0-.192.4c0 .155.05.272.152.352.101.075.234.13.4.168.17.037.349.08.536.128Zm3.956 2.544c-.427 0-.79-.093-1.088-.28a1.855 1.855 0 0 1-.672-.776 2.662 2.662 0 0 1-.224-1.112c0-.437.08-.816.24-1.136a1.8 1.8 0 0 1 .696-.744 1.978 1.978 0 0 1 1.048-.272c.4 0 .738.085 1.016.256.282.165.498.4.648.704.149.299.224.648.224 1.048v.184a.925.925 0 0 1-.008.136h-3.192c.005.24.056.472.152.696.096.219.24.397.432.536s.437.208.736.208c.266 0 .48-.048.64-.144.165-.101.29-.216.376-.344.085-.128.138-.24.16-.336h.648c-.07.25-.182.483-.336.696a1.664 1.664 0 0 1-.6.496c-.246.123-.544.184-.896.184Zm-.032-3.768a1.29 1.29 0 0 0-.64.16 1.177 1.177 0 0 0-.448.424 1.354 1.354 0 0 0-.192.632h2.52c0-.224-.051-.427-.152-.608a1.114 1.114 0 0 0-.432-.44 1.226 1.226 0 0 0-.656-.168Zm2.615-.432h.64v.808h.016c.106-.267.248-.485.424-.656.176-.176.41-.264.704-.264.138 0 .264.008.376.024v.64a1.616 1.616 0 0 0-.264-.024 1.205 1.205 0 0 0-1.104.672 1.578 1.578 0 0 0-.152.704V72h-.64v-4.08Zm2.365 0h.704l1.136 3.44h.008l1.12-3.44h.688L306.06 72h-.728l-1.464-4.08Zm5.786 4.2c-.427 0-.789-.093-1.088-.28a1.87 1.87 0 0 1-.672-.776 2.677 2.677 0 0 1-.224-1.112c0-.437.08-.816.24-1.136a1.8 1.8 0 0 1 .696-.744 1.98 1.98 0 0 1 1.048-.272c.4 0 .739.085 1.016.256.283.165.499.4.648.704.149.299.224.648.224 1.048v.184a.925.925 0 0 1-.008.136h-3.192c.005.24.056.472.152.696.096.219.24.397.432.536s.437.208.736.208c.267 0 .48-.048.64-.144a1.18 1.18 0 0 0 .376-.344c.085-.128.139-.24.16-.336h.648c-.069.25-.181.483-.336.696a1.664 1.664 0 0 1-.6.496c-.245.123-.544.184-.896.184Zm-.032-3.768a1.29 1.29 0 0 0-.64.16 1.177 1.177 0 0 0-.448.424 1.354 1.354 0 0 0-.192.632h2.52c0-.224-.051-.427-.152-.608a1.101 1.101 0 0 0-.432-.44 1.224 1.224 0 0 0-.656-.168Zm5.551.096h.016V66.28h.64V72h-.64v-.504h-.016a1.786 1.786 0 0 1-.48.424c-.203.128-.469.192-.8.192-.341 0-.651-.085-.928-.256a1.821 1.821 0 0 1-.664-.736c-.165-.325-.248-.712-.248-1.16 0-.448.083-.832.248-1.152a1.81 1.81 0 0 1 .664-.744c.277-.17.587-.256.928-.256.331 0 .597.064.8.192.203.123.363.272.48.448Zm-1.216 3.104c.379 0 .677-.144.896-.432.224-.293.336-.68.336-1.16 0-.48-.112-.864-.336-1.152a1.058 1.058 0 0 0-.896-.44c-.277 0-.509.077-.696.232a1.422 1.422 0 0 0-.408.6 2.33 2.33 0 0 0 0 1.528c.091.24.227.437.408.592.187.155.419.232.696.232ZM66.88 70.568h-2.52L63.856 72h-.744l2.112-5.72h.808L68.16 72h-.776l-.504-1.432Zm-2.28-.64h2.048l-1.016-2.984h-.016L64.6 69.928Zm4.113-3.648h.64V72h-.64v-5.72Zm1.563 0h.64V72h-.64v-5.72Z" fill="#797979"/><g clip-path="url(#a)"><path d="M340.816 84.851c-3.171 0-2.843-2.078.547-2.406 6.452-.656 9.296-3.062 11.155-8.858.547-1.969 1.421-5.03 2.406-9.077.765-2.297-.109-3.609-2.406-3.609h-20.779c-3.171 0-2.515-2.078-.547-4.593 3.937-5.03 44.401-51.947 46.807-54.571 1.531-1.64 5.468-1.422 4.265-.11-4.046 4.265-43.307 48.885-45.275 51.181-1.969 2.297-2.406 3.938-.657 3.938h17.17c2.187 0 3.828-1.313 4.375-3.5l5.358-21.873c.219-.984 1.094-2.296 4.265-3.17 2.188-.657 3.281-.22 2.625 2.077-1.531 6.452-3.281 12.904-4.374 17.17l-1.422 5.796c-.547 2.187.437 3.5 2.625 3.5h4.265c2.296 0 2.952.656 1.422 2.296-1.094 1.094-1.641 1.86-3.281 1.86h-3.281c-2.297 0-3.828 1.312-4.375 3.608l-2.078 9.186c-.874 4.594-.328 8.093 5.906 8.75 3.172.328 2.296 2.734-.547 2.405-2.953-.328-6.78-.765-11.155-.765-4.374 0-8.53.765-13.014.765Z" fill="#fff"/></g><defs><clipPath id="a"><path fill="#fff" transform="translate(328.475 .095)" d="M0 0h55v83.937H0z"/></clipPath></defs></svg>