<svg width="25" height="26" fill="none" xmlns="http://www.w3.org/2000/svg"><path d="M9.625 18.374V11.62H7.382v6.753h2.243Zm-1.121-7.675c.782 0 1.269-.519 1.269-1.167-.015-.663-.487-1.167-1.254-1.167-.768 0-1.269.504-1.269 1.167 0 .648.487 1.167 1.24 1.167h.014Zm2.362 7.675h2.243v-3.771c0-.202.014-.404.074-.548.162-.403.53-.82 1.15-.82.812 0 1.136.619 1.136 1.527v3.612h2.243v-3.872c0-2.074-1.106-3.04-2.582-3.04-1.21 0-1.74.677-2.036 1.138h.015v-.98h-2.243c.03.634 0 6.754 0 6.754Z" fill="#fff"/></svg>