<svg width="18" height="16" fill="none" xmlns="http://www.w3.org/2000/svg"><path d="M1.407 7.033S9.225 3.74 11.937 2.58C12.975 2.117 16.5.632 16.5.632s1.627-.649 1.492.928c-.045.65-.407 2.922-.768 5.38-.543 3.478-1.13 7.281-1.13 7.281s-.09 1.067-.859 1.252c-.768.186-2.033-.649-2.26-.835-.18-.139-3.389-2.226-4.564-3.246-.316-.278-.677-.835.046-1.484 1.627-1.53 3.57-3.432 4.745-4.638.542-.556 1.084-1.855-1.175-.278-3.209 2.272-6.372 4.406-6.372 4.406s-.723.464-2.079.046C2.22 9.027.64 8.47.64 8.47s-1.085-.695.768-1.437Z" fill="#fff"/></svg>